<svg xmlns="http://www.w3.org/2000/svg" width="53" height="53" viewBox="0 0 53 53" fill="none">
  <g clip-path="url(#clip0_2_303)">
    <path d="M32.49 35.71C33.19 35.19 33.53 34.54 33.53 33.74C33.53 31.35 28.31 28 25.97 28C24.05 28 21.43 29.22 21.43 31.45C21.43 33.35 23.56 34.38 25.3 34.38C26.16 34.38 28 33.91 28.6 33L31.09 34.45C29.92 36.45 27.09 37.1 25.33 37.1C21.57 37.1 18.32 35.52 18.32 31.44C18.32 27.83 22.29 25.88 23.93 25.65C22.94 25.1 22.04 24.12 22.04 22.22C22.04 19.18 24.19 17.42 26.97 17.42C29.75 17.42 31.9 18.85 31.9 21.83C31.9 22.74 31.46 23.91 30.45 24.48L28.19 23.23C28.61 22.79 28.92 22.19 28.92 21.41C28.92 20.63 28.06 20.14 26.97 20.14C25.75 20.14 25.13 21.05 25.13 22.14C25.13 24.04 27.08 25.18 29.15 26.03C33.93 28 36.73 30.18 36.73 33.59C36.73 35.17 36.18 36.52 35.3 37.28L32.5 35.7L32.49 35.71Z" fill="black"/>
    <path d="M36.72 29.63V34.73H34.04V20H39.69C43.62 20 46.55 21.03 46.55 24.8C46.55 28.33 43.62 29.62 40.4 29.62H36.73L36.72 29.63ZM36.72 22.34V27.32H40.25C42.07 27.32 43.92 26.82 43.92 24.78C43.92 23.21 42.73 22.34 40.51 22.34H36.72Z" fill="black"/>
    <path d="M11.34 20V26.74L18.64 20H22.23L15.91 25.41L22.43 34.73H19.28L14.12 27.08L11.34 29.52V34.73H8.74V20H11.34Z" fill="black"/>
    <path d="M3.28 13.66L2.56 15.08L3.23 15.42L3.79 14.3L4.18 14.55L3.64 15.62L4.72 16.17L4.48 16.65L1.87 15.33L2.85 13.38L3.26 13.65L3.28 13.66Z" fill="#231F20"/>
    <path d="M4.55 10.83L6.93 12.53L6.62 12.97L4.24 11.27L4.55 10.83Z" fill="#231F20"/>
    <path d="M6.51 8.46005L8.85 9.55005L7.74 7.18005L8.1 6.80005L9.47 9.58005L8.94 10.12L6.11 8.84005L6.5 8.44005L6.51 8.46005Z" fill="#231F20"/>
    <path d="M13.62 6.34002L11.84 7.55002L10.19 5.13002L12 3.90002L12.23 4.34002L10.92 5.23002L11.23 5.69002L12.26 4.99002L12.48 5.40002L11.49 6.07002L12.01 6.84002L13.39 5.90002L13.62 6.33002V6.34002Z" fill="#231F20"/>
    <path d="M18.26 1.12006L18.61 2.41006L19.66 0.740059L20.35 0.560059L19.42 1.92006L21.15 3.37006L20.55 3.53006L19.17 2.33006L18.76 2.94006L19.03 3.94006L18.53 4.07006L17.77 1.25006L18.27 1.12006H18.26Z" fill="#231F20"/>
    <path d="M23.46 0.130005L23.75 3.04L23.21 3.09L22.92 0.180005L23.46 0.130005Z" fill="#231F20"/>
    <path d="M26.09 2.91L26.28 0L27.23 0.06C28.24 0.12 28.87 0.76 28.8 1.79C28.74 2.68 28.05 3.04 27.26 2.99L26.09 2.91ZM26.65 2.49L27.24 2.53C27.8 2.57 28.23 2.35 28.27 1.69C28.32 0.96 27.75 0.56 27.13 0.52L26.78 0.5L26.65 2.49Z" fill="#231F20"/>
    <path d="M31.36 2.64C31.4 2.96 31.68 3.22 32 3.31C32.45 3.43 32.86 3.39 32.94 3.06C32.99 2.86 32.68 2.69 32.52 2.61C32.06 2.38 31.19 2.1 31.39 1.34C31.56 0.72 32.3 0.74 32.76 0.86C33.35 1.02 33.78 1.32 33.82 1.79L33.27 1.94C33.25 1.65 32.99 1.4 32.68 1.32C32.43 1.25 32.01 1.19 31.93 1.49C31.88 1.68 32.18 1.85 32.38 1.96C32.9 2.23 33.68 2.48 33.48 3.22C33.3 3.89 32.48 3.93 31.95 3.79C31.18 3.58 30.85 3.15 30.82 2.78L31.37 2.64H31.36Z" fill="#231F20"/>
    <path d="M39.98 6.83997L38.91 6.10997L38.36 6.55997L37.91 6.24997L40.3 4.33997L41.13 4.90997L40.21 7.82997L39.76 7.52997L39.98 6.84997V6.83997ZM39.26 5.81997L40.12 6.40997L40.56 5.04997L40.37 4.91997L39.26 5.80997V5.81997Z" fill="#231F20"/>
    <path d="M45.65 8.96L43.55 10.99L43.29 10.72L43.56 8.14L42.13 9.52L41.77 9.14999L43.87 7.12L44.15 7.41L43.85 9.97999L45.29 8.59L45.65 8.96Z" fill="#231F20"/>
    <path d="M44.99 12.82L47.46 11.26L47.97 12.06C48.51 12.92 48.37 13.8 47.49 14.35C46.73 14.83 46.04 14.48 45.61 13.81L44.98 12.82H44.99ZM45.66 13.02L45.98 13.52C46.28 13.99 46.7 14.22 47.26 13.86C47.88 13.47 47.87 12.78 47.54 12.25L47.35 11.95L45.66 13.02Z" fill="#231F20"/>
    <path d="M49.52 20.3L48.53 20.53L48.41 20.01L51.25 19.36L51.5 20.45C51.67 21.21 51.61 21.82 50.88 21.99C50.2 22.15 49.82 21.64 49.68 21.02L49.52 20.31V20.3ZM50.92 19.98L49.96 20.2L50.12 20.88C50.2 21.23 50.38 21.57 50.77 21.48C51.07 21.41 51.19 21.14 51.09 20.71L50.92 19.98Z" fill="#231F20"/>
    <path d="M49.28 26.66L49.21 24.59L52.13 24.49L52.15 25.03L49.71 25.12L49.77 26.71L49.29 26.67L49.28 26.66Z" fill="#231F20"/>
    <path d="M49.56 30.65L49.76 29.37L49.12 29.07L49.2 28.53L51.95 29.85L51.8 30.84L48.78 31.28L48.86 30.75L49.56 30.66V30.65ZM50.17 29.56L50.01 30.59L51.42 30.4L51.45 30.18L50.17 29.57V29.56Z" fill="#231F20"/>
    <path d="M50.11 36.71L47.37 35.7L47.5 35.35L49.94 34.47L48.07 33.78L48.25 33.29L50.99 34.3L50.85 34.68L48.41 35.52L50.29 36.21L50.11 36.7V36.71Z" fill="#231F20"/>
    <path d="M47.44 41.5L44.97 39.94L45.17 39.62L47.74 39.27L46.06 38.21L46.34 37.77L48.81 39.33L48.59 39.67L46.02 39.98L47.72 41.05L47.44 41.49V41.5Z" fill="#231F20"/>
    <path d="M45.33 44.09L43.15 42.14L43.51 41.74L45.69 43.69L45.33 44.09Z" fill="#231F20"/>
    <path d="M41.34 47.7101L39.51 45.4301L39.8 45.1901L42.35 45.6901L41.1 44.1401L41.51 43.8101L43.35 46.0901L43.03 46.3501L40.5 45.8101L41.76 47.3701L41.35 47.7001L41.34 47.7101Z" fill="#231F20"/>
    <path d="M38.4 47.96C38.84 48.83 38.62 49.5 37.78 49.93C37.23 50.21 36.66 50.18 36.19 49.6L36.61 49.2C36.89 49.53 37.2 49.67 37.62 49.45C38.15 49.18 38.16 48.69 37.92 48.22C37.62 47.63 36.94 47.5 36.44 47.75C36.27 47.84 36.13 47.94 36.04 48.05L36.38 48.72L35.9 48.96L35.56 48.3H35.39L35.35 48.22C35.47 47.84 35.67 47.6 36.27 47.29C37.09 46.87 37.96 47.12 38.39 47.96H38.4Z" fill="#231F20"/>
    <path d="M24.73 49.8H26.88V52.7201H24.7L24.76 52.23H26.35V51.67H25.1L25.15 51.21H26.35V50.28H24.68L24.73 49.8Z" fill="#231F20"/>
    <path d="M22.09 50.44C22.03 50.12 21.73 49.88 21.41 49.82C20.95 49.73 20.55 49.81 20.49 50.14C20.45 50.34 20.78 50.49 20.94 50.56C21.41 50.76 22.31 50.98 22.16 51.74C22.04 52.37 21.3 52.41 20.82 52.31C20.22 52.19 19.77 51.92 19.69 51.46L20.23 51.27C20.27 51.56 20.55 51.79 20.87 51.85C21.13 51.9 21.55 51.93 21.61 51.62C21.65 51.43 21.33 51.27 21.13 51.19C20.59 50.96 19.8 50.77 19.94 50.02C20.07 49.34 20.88 49.24 21.42 49.34C22.21 49.49 22.56 49.9 22.62 50.26L22.08 50.44H22.09Z" fill="#231F20"/>
    <path d="M17.2 51.29L14.93 50.39L15.16 49.95L15.99 50.28L16.89 48.02L17.39 48.22L16.49 50.48L17.38 50.83L17.2 51.29Z" fill="#231F20"/>
    <path d="M13.95 46.86C14.03 46.73 14.17 46.68 14.31 46.76C14.45 46.84 14.48 46.98 14.41 47.12C14.33 47.26 14.19 47.3 14.05 47.22C13.91 47.14 13.87 47 13.95 46.86Z" fill="#231F20"/>
    <path d="M6.78 43.3C7.34 42.76 8.15 42.92 8.85 43.15L7.87 42.13L8.23 41.85L9.71 43.38L9.43 43.76C8.77 43.5 7.63 43.14 7.1 43.64C6.89 43.84 6.93 44.2 7.13 44.41C7.29 44.57 7.62 44.74 7.8 44.55C7.86 44.49 7.9 44.41 7.91 44.28L8.35 44.35C8.36 44.54 8.29 44.74 8.14 44.88C7.74 45.26 7.25 45.12 6.83 44.68C6.38 44.21 6.38 43.67 6.78 43.28V43.3Z" fill="#231F20"/>
    <path d="M4.37 39.06C5.03 38.62 5.86 38.56 6.31 39.24C6.75 39.91 6.36 40.65 5.7 41.08C5.02 41.53 4.21 41.58 3.77 40.91C3.32 40.23 3.69 39.51 4.37 39.06ZM5.39 40.62C5.78 40.36 6.27 39.98 5.94 39.48C5.61 38.98 5.07 39.27 4.67 39.53C4.28 39.78 3.8 40.18 4.12 40.67C4.45 41.17 5 40.87 5.38 40.62H5.39Z" fill="#231F20"/>
    <path d="M1.92 35.23C2.65 34.93 3.34 35.37 3.91 35.84L3.36 34.53L3.8 34.4L4.62 36.37L4.22 36.62C3.7 36.14 2.76 35.39 2.09 35.67C1.82 35.78 1.72 36.13 1.84 36.4C1.93 36.61 2.17 36.88 2.42 36.78C2.5 36.75 2.57 36.68 2.62 36.57L3 36.79C2.94 36.97 2.8 37.13 2.62 37.21C2.11 37.42 1.7 37.11 1.46 36.54C1.21 35.93 1.4 35.43 1.92 35.21V35.23Z" fill="#231F20"/>
    <path d="M0.730002 30.7701C1.5 30.6001 2.09 31.1701 2.57 31.7301L2.27 30.3501L2.72 30.3101L3.17 32.3901L2.73 32.5701C2.31 32.0001 1.53 31.1001 0.810002 31.2501C0.520002 31.3101 0.370002 31.6301 0.430002 31.9201C0.480002 32.1401 0.670002 32.4501 0.930002 32.4001C1.02 32.3801 1.09 32.3301 1.16 32.2301L1.5 32.5201C1.41 32.6901 1.25 32.8201 1.05 32.8601C0.510002 32.9801 0.170002 32.5901 0.0400025 32.0001C-0.0999975 31.3601 0.190002 30.9001 0.730002 30.7801V30.7701Z" fill="#231F20"/>
  </g>
  <defs>
    <clipPath id="clip0_2_303">
      <rect width="52.15" height="52.72" fill="white"/>
    </clipPath>
  </defs>
</svg>