<svg width="106" height="29" viewBox="0 0 106 29" fill="none" xmlns="http://www.w3.org/2000/svg">
<g clip-path="url(#clip0_1_144)">
<path d="M7.82725 2.10022H1.96403V4.86212H6.58529L6.38311 6.55955H1.96403V11.0189H0V0.28772H8.05831L7.85613 2.10022H7.82725Z" fill="#231F20"/>
<path d="M15.0768 0.28772V11.0189H13.0839V0.28772H15.0768Z" fill="#231F20"/>
<path d="M22.2398 0.28772L25.3591 9.26391L28.7962 0.28772H30.7313L26.861 11.0189H24.0594L20.1891 0.28772H22.2687H22.2398Z" fill="#231F20"/>
<path d="M43.7864 11.0189H35.8436V0.28772H43.9019L43.6997 2.10022H37.8365V4.14288H42.4289L42.2267 5.8403H37.8076V9.26391H43.9597L43.7575 11.0189H43.7864Z" fill="#231F20"/>
<path d="M60.4807 0.28772V5.20736L65.824 0.28772H68.4523L63.8311 4.22919L68.5967 11.0189H66.2861L62.5025 5.43752L60.4518 7.22125V11.0189H58.5455V0.28772H60.4518H60.4807Z" fill="#231F20"/>
<path d="M75.7019 0.28772V11.0189H73.709V0.28772H75.7019Z" fill="#231F20"/>
<path d="M81.7095 11.0189V0.28772H85.2044C88.9302 0.28772 91.4142 2.47423 91.4142 6.27185C91.4142 9.58038 88.9591 11.0476 86.042 11.0476H81.7095V11.0189ZM83.6736 9.35022H85.8687C87.9482 9.35022 89.4501 8.45835 89.4501 6.04169C89.4501 3.33732 87.2839 2.01391 84.9733 2.01391H83.6736V9.35022Z" fill="#231F20"/>
<path d="M97.9128 7.62401C98.3749 8.71726 99.588 9.37897 100.83 9.37897C102.563 9.37897 103.949 8.83234 103.949 7.59524C103.949 6.84722 102.678 6.53075 102.014 6.41567C100.166 6.04167 96.7864 5.86905 96.7864 2.99206C96.7864 0.632936 99.4436 0 101.234 0C103.487 0 105.336 0.661706 105.913 2.27282L104.094 3.3373C103.747 2.30159 102.592 1.69742 101.379 1.69742C100.397 1.69742 98.8659 1.89881 98.8659 3.0496C98.8659 3.76885 100.108 4.11409 100.917 4.28671C103.054 4.74702 106.029 4.89087 106.029 7.71032C106.029 10.2421 103.141 11.1915 101.119 11.1915C98.1727 11.1915 96.5842 9.95436 96.1221 8.68849L97.9417 7.65278L97.9128 7.62401Z" fill="#231F20"/>
<path d="M24.146 26.8423V28.9425H23.0485V22.9296H25.3591C26.9766 22.9296 28.1896 23.3611 28.1896 24.8859C28.1896 26.3244 26.9766 26.871 25.648 26.871H24.146V26.8423ZM24.146 23.879V25.9216H25.5902C26.3411 25.9216 27.0921 25.7202 27.0921 24.8859C27.0921 24.253 26.6011 23.879 25.7057 23.879H24.146Z" fill="#231F20"/>
<path d="M35.497 28.9425H31.1935V22.9296H32.291V27.9643H35.5836L35.4681 28.9425H35.497Z" fill="#231F20"/>
<path d="M42.2267 27.5327H39.5406L39.1362 28.9425H38.0098L39.8583 22.9296H41.9379L43.7864 28.9425H42.6599L42.2556 27.5327H42.2267ZM39.8294 26.6409H41.9956L41.158 23.8214H40.6959L39.8583 26.6409H39.8294Z" fill="#231F20"/>
<path d="M51.9602 22.9008V28.9137H51.1804L47.7433 24.7996V28.9137H46.6747V22.9008H47.5123L50.8916 27.0437V22.9008H51.9602Z" fill="#231F20"/>
<path d="M60.654 22.9008V28.9137H59.8741L56.4371 24.7996V28.9137H55.3684V22.9008H56.206L59.5853 27.0437V22.9008H60.654Z" fill="#231F20"/>
<path d="M65.1597 22.9008V28.9137H64.0332V22.9008H65.1597Z" fill="#231F20"/>
<path d="M73.8245 22.9008V28.9137H73.0447L69.6076 24.7996V28.9137H68.539V22.9008H69.3766L72.7559 27.0437V22.9008H73.8245Z" fill="#231F20"/>
<path d="M76.8861 25.8066C76.8861 23.7927 77.9259 22.757 79.8899 22.757C81.1608 22.757 82.2005 23.3324 82.5182 24.8572L81.3629 25.2024C81.1608 24.3393 80.7275 23.7927 79.7455 23.7927C78.5035 23.7927 78.0414 24.6845 78.0414 25.7778C78.0414 27.1587 79.1678 28.0218 80.3232 28.0218C80.7275 28.0218 81.0741 27.9643 81.3341 27.8492V26.2956H82.4605V27.8205L82.7782 27.9643V28.1369C82.2005 28.7123 81.6229 29 80.1787 29C78.2725 29 76.8861 27.7341 76.8861 25.7778V25.8066Z" fill="#231F20"/>
<path d="M55.3395 19.4772C55.6283 19.2758 55.7439 19.0168 55.7439 18.7004C55.7439 17.7797 53.6932 16.4563 52.7689 16.4563C52.018 16.4563 50.9782 16.9454 50.9782 17.8085C50.9782 18.5565 51.8158 18.9593 52.509 18.9593C52.8556 18.9593 53.5777 18.7867 53.8087 18.4127L54.7907 18.9881C54.3286 19.7649 53.2311 20.0238 52.5379 20.0238C51.0648 20.0238 49.794 19.4196 49.794 17.8085C49.794 16.3988 51.3537 15.6508 51.9891 15.5357C51.6136 15.3343 51.2381 14.9315 51.2381 14.1835C51.2381 13.004 52.0757 12.3135 53.1733 12.3135C54.2708 12.3135 55.1084 12.8601 55.1084 14.0397C55.1084 14.3849 54.9351 14.8452 54.5308 15.0754L53.6354 14.5863C53.8087 14.4137 53.9242 14.1835 53.9242 13.867C53.9242 13.5506 53.5777 13.378 53.1733 13.378C52.6823 13.378 52.4512 13.7232 52.4512 14.1547C52.4512 14.9028 53.2022 15.3343 54.0398 15.6795C55.9172 16.4563 57.0147 17.2907 57.0147 18.6428C57.0147 19.2758 56.8125 19.7936 56.4659 20.0813L55.3684 19.4484L55.3395 19.4772Z" fill="#231F20"/>
<path d="M10.7733 17.6647H43.0354C44.4218 17.6647 44.4218 15.507 43.0354 15.507H10.7733C9.38692 15.507 9.38692 17.6647 10.7733 17.6647Z" fill="#231F20"/>
<path d="M63.6866 17.6647H95.9488C97.3351 17.6647 97.3351 15.507 95.9488 15.507H63.6866C62.3003 15.507 62.3003 17.6647 63.6866 17.6647Z" fill="#231F20"/>
</g>
<defs>
<clipPath id="clip0_1_144">
<rect width="106" height="29" fill="white"/>
</clipPath>
</defs>
</svg>
